<svg xmlns="http://www.w3.org/2000/svg" xmlns:xlink="http://www.w3.org/1999/xlink" viewBox="0 0 1280 720"><defs><style>.cls-1{fill:#e7e7e7;}.cls-2{fill:url(#Degradado_sin_nombre_32);}</style><linearGradient id="Degradado_sin_nombre_32" y1="357.62" x2="1280" y2="357.62" gradientUnits="userSpaceOnUse"><stop offset="0" stop-color="#0c6ead"/><stop offset="0.5" stop-color="#1d88c7"/><stop offset="1" stop-color="#2c9edd"/></linearGradient></defs><title>fondoNube</title><g id="Capa_2" data-name="Capa 2"><g id="fondoNube"><path class="cls-1" d="M0,0V128.6C12.78,83.88,74,50,147.51,50c45.62,0,86.48,13,114,33.62C289,63,329.86,50,375.48,50c30.16,0,58.23,5.7,81.74,15.51C480.73,55.69,508.8,50,539,50c47,0,89,13.86,116.47,35.54C682.93,63.85,724.89,50,771.91,50c27.32,0,52.93,4.68,75,12.85C869,54.67,894.56,50,921.88,50c40.37,0,77,10.22,104,26.82,27-16.6,63.6-26.82,104-26.82,74.31,0,136,34.6,147.89,80h2.08V0Z"/><path class="cls-2" d="M1280,130s-43.34-94-149.7-82-103.79,26.82-103.79,26.82C999.59,58.2,963,48,922.72,48c-27.27,0-52.84,4.67-74.86,12.84C825.84,52.66,800.28,48,773,48c-46.94,0-88.82,13.85-116.27,35.53C629.29,61.84,587.41,48,540.47,48c-30.1,0-58.12,5.7-81.6,15.5C435.4,53.69,407.38,48,377.28,48,331.74,48,291,61,263.49,81.61,55.39-23,0,127,0,127L1,590s22,80.69,149.7,80c40.3,0,76.88-10.21,103.79-26.82C281.4,659.8,318,670,358.28,670c27.27,0,52.83-4.67,74.85-12.84,22,8.17,47.59,12.84,74.86,12.84,46.93,0,88.82-13.85,116.27-35.53C651.71,656.16,693.59,670,740.53,670c30.1,0,58.12-5.7,81.6-15.5,23.47,9.8,51.49,15.5,81.59,15.5,45.54,0,86.33-13,113.79-33.62C1045,657,1006.32,661,1131.29,670S1279,598,1279,598Z"/><path class="cls-1" d="M1278.81,720V591.4C1266,636.12,1204.91,670,1131.42,670c-45.59,0-86.42-13-113.9-33.62C990,657,949.21,670,903.62,670c-30.13,0-58.18-5.7-81.68-15.51C798.45,664.31,770.4,670,740.27,670c-47,0-88.92-13.86-116.39-35.54C596.4,656.15,554.48,670,507.49,670c-27.29,0-52.88-4.68-74.93-12.85-22,8.17-47.63,12.85-74.92,12.85-40.34,0-77-10.22-103.89-26.82C226.81,659.79,190.19,670,149.85,670,75.6,670,14,635.41,2.08,590H0V720Z"/></g></g></svg>